<?xml version="1.0" encoding="UTF-8"?>
<svg version="1.1" xmlns="http://www.w3.org/2000/svg" width="146" height="162">
<path d="M0 0 C3.16620095 2.18618637 3.7896387 3.36891611 5 7 C7.85440384 49.79243495 -4.92139164 91.68864534 -32.125 124.9375 C-49.70240753 144.45716251 -73.90089747 155.16501472 -99 161 C-100.10263184 161.27589966 -100.10263184 161.27589966 -101.22753906 161.55737305 C-105.01366149 162.16183236 -108.7596725 162.12283518 -112.58203125 162.09765625 C-113.80329964 162.09553383 -113.80329964 162.09553383 -115.04924011 162.09336853 C-117.63703156 162.08779317 -120.22473492 162.07524524 -122.8125 162.0625 C-124.57226437 162.05748181 -126.33203011 162.05291946 -128.09179688 162.04882812 C-132.39456494 162.03783181 -136.69726756 162.02058421 -141 162 C-140.46159742 154.79857561 -138.80632735 148.49849165 -136.53515625 141.66015625 C-136.18630875 140.58856262 -135.83746124 139.51696899 -135.4780426 138.41290283 C-134.34967977 134.95933832 -133.20727158 131.51065724 -132.0625 128.0625 C-131.67495544 126.88738861 -131.28741089 125.71227722 -130.88812256 124.5015564 C-125.3838017 107.81957024 -119.83197668 91.1947262 -113 75 C-112.31599121 73.37674805 -112.31599121 73.37674805 -111.61816406 71.72070312 C-93.52693204 29.1230809 -93.52693204 29.1230809 -82 24 C-78.63714367 23.91993199 -77.45091591 24.60374056 -74.9375 26.8125 C-69.60842119 35.57969417 -68.32593021 44.89616334 -68 55 C-64.23961447 51.34198431 -60.81312539 47.51245107 -57.4375 43.5 C-51.47231916 36.48881405 -45.33658165 29.67664864 -39 23 C-38.4131543 22.37383789 -37.82630859 21.74767578 -37.22167969 21.10253906 C-14.18313591 -3.367573 -14.18313591 -3.367573 0 0 Z " fill="#B03971" transform="translate(141,0)"/>
<path d="M0 0 C4.38050142 4.00502987 5.01154357 8.4165569 6 14 C6.26103516 15.19689453 6.26103516 15.19689453 6.52734375 16.41796875 C12.33962407 43.10354774 9.17456085 69.29123054 -2 94 C-2.66 94 -3.32 94 -4 94 C-4.25265625 94.72316406 -4.5053125 95.44632812 -4.765625 96.19140625 C-7.93692037 103.40710679 -14.19457236 109.74747023 -20 115 C-20.66 115 -21.32 115 -22 115 C-22 115.66 -22 116.32 -22 117 C-24.09604832 118.53730345 -26.17486141 119.93847033 -28.375 121.3125 C-29.01550293 121.71621826 -29.65600586 122.11993652 -30.31591797 122.53588867 C-39.8704361 128.48562805 -51.3878359 135.57109004 -63 135 C-63 134.34 -63 133.68 -63 133 C-62.34 133 -61.68 133 -61 133 C-60.814375 131.4221875 -60.814375 131.4221875 -60.625 129.8125 C-60 126 -60 126 -58.9375 123.625 C-57.99452843 120.98467961 -57.98146294 119.66820509 -58.12231445 116.9309082 C-58.16897742 111.68760984 -56.84424774 107.38606949 -55.10546875 102.48046875 C-54.80242325 101.59218384 -54.49937775 100.70389893 -54.18714905 99.78869629 C-53.20198586 96.91629768 -52.19599649 94.05178167 -51.1875 91.1875 C-50.49605887 89.19714665 -49.80498061 87.20666721 -49.11425781 85.21606445 C-42.27412192 65.60148989 -35.09354903 46.19115902 -26.25 27.375 C-25.8262207 26.46838623 -25.40244141 25.56177246 -24.96582031 24.62768555 C-20.7617341 15.95696094 -14.99299033 5.3074618 -7 -0.4375 C-4.21142141 -1.22178773 -2.71809088 -1.01928408 0 0 Z " fill="#9E084E" transform="translate(64,25)"/>
<path d="M0 0 C0.98526354 3.47588057 0.85577054 5.70361404 0.0625 9.25 C-0.13214844 10.14203125 -0.32679687 11.0340625 -0.52734375 11.953125 C-0.68332031 12.62859375 -0.83929688 13.3040625 -1 14 C-1.99 14.33 -2.98 14.66 -4 15 C-3.67 16.98 -3.34 18.96 -3 21 C-3.33 21 -3.66 21 -4 21 C-4.0825 22.051875 -4.165 23.10375 -4.25 24.1875 C-5 28 -5 28 -7.0625 30.5625 C-9.45727311 33.57527907 -9.34897876 35.24847835 -9 39 C-9.66 39 -10.32 39 -11 39 C-11.495 41.475 -11.495 41.475 -12 44 C-12.66 44 -13.32 44 -14 44 C-12.78153706 37.99071486 -11.20772807 32.2485135 -9.1796875 26.46484375 C-8.91616486 25.70071671 -8.65264221 24.93658966 -8.38113403 24.14930725 C-7.55036362 21.74374715 -6.71281809 19.34061338 -5.875 16.9375 C-5.30553688 15.29247435 -4.73652246 13.6472933 -4.16796875 12.00195312 C-2.78381833 7.99948968 -1.39359276 3.99918506 0 0 Z " fill="#CC78A0" transform="translate(20,96)"/>
<path d="M0 0 C0.66 0.33 1.32 0.66 2 1 C-0.97 3.97 -0.97 3.97 -4 7 C-3.01 7.66 -2.02 8.32 -1 9 C-1.66 10.65 -2.32 12.3 -3 14 C-4.32 13.34 -5.64 12.68 -7 12 C-7.928125 12.99 -7.928125 12.99 -8.875 14 C-11 16 -11 16 -13 16 C-13 16.66 -13 17.32 -13 18 C-13.66 18 -14.32 18 -15 18 C-15.33 18.66 -15.66 19.32 -16 20 C-16.66 19.34 -17.32 18.68 -18 18 C-12.06 12.06 -6.12 6.12 0 0 Z " fill="#AD6988" transform="translate(117,8)"/>
<path d="M0 0 C0.66 0.33 1.32 0.66 2 1 C0.56839732 2.00842453 -0.87051453 3.00647891 -2.3125 4 C-3.11300781 4.556875 -3.91351562 5.11375 -4.73828125 5.6875 C-7 7 -7 7 -10 7 C-10 7.66 -10 8.32 -10 9 C-9.34 9.66 -8.68 10.32 -8 11 C-13.28 11 -18.56 11 -24 11 C-21.41871178 9.70935589 -18.89004946 8.48649868 -16.25 7.34375 C-15.5590625 7.04339844 -14.868125 6.74304688 -14.15625 6.43359375 C-12 5.5 -12 5.5 -9.84375 4.56640625 C-9.1528125 4.26605469 -8.461875 3.96570313 -7.75 3.65625 C-7.09257812 3.37136719 -6.43515625 3.08648437 -5.7578125 2.79296875 C-4.35278461 2.15914506 -2.98156228 1.45057965 -1.625 0.71875 C-1.08875 0.4815625 -0.5525 0.244375 0 0 Z " fill="#C72872" transform="translate(30,149)"/>
<path d="M0 0 C2.6875 2 2.6875 2 4 4 C3.67 4.99 3.34 5.98 3 7 C2.67 6.34 2.34 5.68 2 5 C-0.02463255 4.34786708 -0.02463255 4.34786708 -2 4 C-2 3.01 -2 2.02 -2 1 C-4.64 1 -7.28 1 -10 1 C-10.33 2.65 -10.66 4.3 -11 6 C-14 7 -14 7 -16 7 C-18.00212229 7.32033957 -20.00239695 7.65259077 -22 8 C-15.70738317 0.95226915 -9.34661768 -1.53805101 0 0 Z " fill="#C399AE" transform="translate(141,0)"/>
<path d="M0 0 C0.94875 0.350625 1.8975 0.70125 2.875 1.0625 C-3.09083144 8.72992597 -3.09083144 8.72992597 -8.125 10.0625 C-7.815625 9.155 -7.50625 8.2475 -7.1875 7.3125 C-6.12290257 4.24470517 -6.12290257 4.24470517 -5.625 1.75 C-5.46 1.193125 -5.295 0.63625 -5.125 0.0625 C-3.125 -0.9375 -3.125 -0.9375 0 0 Z " fill="#B53971" transform="translate(99.125,128.9375)"/>
<path d="M0 0 C0.66 0.33 1.32 0.66 2 1 C1.3503125 1.5259375 1.3503125 1.5259375 0.6875 2.0625 C-1.23374868 4.06706595 -1.23374868 4.06706595 -2.4375 7.375 C-4.16819887 11.39022138 -5.97441441 14.9872072 -10 17 C-10.33 17.99 -10.66 18.98 -11 20 C-11.66 20 -12.32 20 -13 20 C-10.17619669 12.38509913 -5.29907615 6.07835206 0 0 Z " fill="#BE8BA4" transform="translate(55,26)"/>
<path d="M0 0 C5.75 0.75 5.75 0.75 8 3 C5.61042731 6.24299151 3.7952131 8.50902342 0 10 C0.020625 9.05125 0.04125 8.1025 0.0625 7.125 C0.22551826 4.09333717 0.22551826 4.09333717 -1 2 C-0.67 1.34 -0.34 0.68 0 0 Z " fill="#C65C8E" transform="translate(102,120)"/>
<path d="M0 0 C0.66 0.66 1.32 1.32 2 2 C1.58818086 7.49092191 -0.35682272 12.77076916 -2 18 C-2.66 18 -3.32 18 -4 18 C-4.33 18.66 -4.66 19.32 -5 20 C-4.35346673 13.04976736 -2.13972752 6.61822697 0 0 Z " fill="#CD729E" transform="translate(5,140)"/>
<path d="M0 0 C1.13732426 3.40401948 0.83989957 5.77456664 0.0625 9.25 C-0.13214844 10.14203125 -0.32679687 11.0340625 -0.52734375 11.953125 C-0.68332031 12.62859375 -0.83929687 13.3040625 -1 14 C-1.99 14.33 -2.98 14.66 -4 15 C-3.67 16.98 -3.34 18.96 -3 21 C-3.99 20.67 -4.98 20.34 -6 20 C-4.63125844 13.04223041 -2.5466871 6.61396893 0 0 Z " fill="#BF6590" transform="translate(20,96)"/>
<path d="M0 0 C0.33 0 0.66 0 1 0 C1.46450943 6.50313209 0.32575612 10.4174808 -3 16 C-3.66 16 -4.32 16 -5 16 C-5.33 16.66 -5.66 17.32 -6 18 C-5.31583566 13.82423832 -3.98634991 10.11919593 -2.4375 6.1875 C-1.75494141 4.44533203 -1.75494141 4.44533203 -1.05859375 2.66796875 C-0.70925781 1.78753906 -0.35992187 0.90710938 0 0 Z " fill="#BE7999" transform="translate(30,70)"/>
<path d="M0 0 C0.66 0.33 1.32 0.66 2 1 C0.02 2.98 -1.96 4.96 -4 7 C-3.01 7.66 -2.02 8.32 -1 9 C-1.66 10.65 -2.32 12.3 -3 14 C-4.32 13.01 -5.64 12.02 -7 11 C-6.68232368 5.59950264 -3.80003673 3.47662935 0 0 Z " fill="#B66F8F" transform="translate(117,8)"/>
<path d="M0 0 C0.99 0 1.98 0 3 0 C2.4833384 3.82329586 1.74085338 5.37334885 -1 8 C-1.165 8.70125 -1.33 9.4025 -1.5 10.125 C-1.665 10.74375 -1.83 11.3625 -2 12 C-2.99 12.33 -3.98 12.66 -5 13 C-4.54554036 11.58208592 -4.08625056 10.16571954 -3.625 8.75 C-3.24214844 7.56664063 -3.24214844 7.56664063 -2.8515625 6.359375 C-2.04826333 4.13372042 -1.10288338 2.09068328 0 0 Z " fill="#AE5E84" transform="translate(36,57)"/>
<path d="M0 0 C0 1.65 0 3.3 0 5 C-0.66 4.67 -1.32 4.34 -2 4 C-2 3.34 -2 2.68 -2 2 C-2.66 2 -3.32 2 -4 2 C-4.2475 2.639375 -4.495 3.27875 -4.75 3.9375 C-6 6 -6 6 -8.125 6.75 C-9.053125 6.87375 -9.053125 6.87375 -10 7 C-9.60856977 4.72970466 -9.11258722 3.16591802 -7.8125 1.25 C-5.21312784 -0.54267046 -3.07660784 -0.20510719 0 0 Z " fill="#7B1341" transform="translate(63,26)"/>
<path d="M0 0 C0 4.09632497 -1.55398196 5.76067881 -4 9 C-5.62332967 10.38576923 -7.28724465 11.72641268 -9 13 C-10.0173873 13.98230498 -11.02596117 14.97469597 -12 16 C-12.33 15.01 -12.66 14.02 -13 13 C-12.48050781 12.56429687 -11.96101563 12.12859375 -11.42578125 11.6796875 C-7.16777334 8.04345894 -3.44527348 4.41425664 0 0 Z " fill="#C0246D" transform="translate(55,127)"/>
<path d="M0 0 C3.50768283 0.09230744 4.75051956 0.75051956 7.25 3.25 C8.97676682 5.96349071 9.63831913 7.83529243 10 11 C9.34 10.67 8.68 10.34 8 10 C8 9.34 8 8.68 8 8 C7.34 8 6.68 8 6 8 C4.375 6 4.375 6 3 4 C3.33 3.34 3.66 2.68 4 2 C2.02 2 0.04 2 -2 2 C-1.34 1.34 -0.68 0.68 0 0 Z " fill="#C08FA6" transform="translate(59,24)"/>
<path d="M0 0 C1 3 1 3 -0.21484375 5.91796875 C-0.78332031 6.99691406 -1.35179687 8.07585937 -1.9375 9.1875 C-2.50339844 10.27417969 -3.06929687 11.36085938 -3.65234375 12.48046875 C-4.09707031 13.31191406 -4.54179688 14.14335938 -5 15 C-5.33 15 -5.66 15 -6 15 C-5.67 12.03 -5.34 9.06 -5 6 C-4.01 6 -3.02 6 -2 6 C-2 4.35 -2 2.7 -2 1 C-1.34 0.67 -0.68 0.34 0 0 Z " fill="#D08DAD" transform="translate(132,83)"/>
<path d="M0 0 C-1.07401108 2.91517292 -1.77810176 4.77810176 -4 7 C-6.625 7.625 -6.625 7.625 -9 8 C-7.13554727 3.64961029 -5.02378599 0 0 0 Z " fill="#B57192" transform="translate(95,34)"/>
<path d="M0 0 C0 0.99 0 1.98 0 3 C-0.33 3.33 -0.66 3.66 -1 4 C-0.67 4.99 -0.34 5.98 0 7 C-1.1446875 7.2165625 -1.1446875 7.2165625 -2.3125 7.4375 C-5.08172908 7.9632594 -5.08172908 7.9632594 -8 9 C-8 8.34 -8 7.68 -8 7 C-7.34 7 -6.68 7 -6 7 C-5.896875 6.401875 -5.79375 5.80375 -5.6875 5.1875 C-4.71993159 2.10887325 -3.39245825 0 0 0 Z " fill="#831145" transform="translate(50,39)"/>
<path d="M0 0 C0.66 0 1.32 0 2 0 C2.49230769 7.38461538 2.49230769 7.38461538 0 10.5 C-0.66 10.995 -1.32 11.49 -2 12 C-1.85831863 10.56208484 -1.71148957 9.1246763 -1.5625 7.6875 C-1.48128906 6.88699219 -1.40007813 6.08648437 -1.31640625 5.26171875 C-1 3 -1 3 0 0 Z " fill="#B64E81" transform="translate(13,116)"/>
<path d="M0 0 C0.33 1.32 0.66 2.64 1 4 C-2 5 -2 5 -4 5 C-6.00212229 5.32033957 -8.00239695 5.65259077 -10 6 C-4.2 0 -4.2 0 0 0 Z " fill="#AF7892" transform="translate(129,2)"/>
<path d="M0 0 C0.66 0 1.32 0 2 0 C1.67 0.99 1.34 1.98 1 3 C0.67 2.01 0.34 1.02 0 0 Z M-3 3 C-2.01 3.33 -1.02 3.66 0 4 C-0.639375 4.598125 -1.27875 5.19625 -1.9375 5.8125 C-4.20310389 7.90810337 -4.20310389 7.90810337 -5 11 C-5.66 11 -6.32 11 -7 11 C-5.87548273 8.0280615 -4.77706209 5.66559313 -3 3 Z " fill="#A66383" transform="translate(49,35)"/>
<path d="M0 0 C1.9375 0.375 1.9375 0.375 4 1 C5.35439668 3.70879335 5.06501451 6.00933268 5 9 C4.34 9 3.68 9 3 9 C2.67 7.02 2.34 5.04 2 3 C1.34 3 0.68 3 0 3 C0 2.01 0 1.02 0 0 Z " fill="#904669" transform="translate(140,4)"/>
<path d="M0 0 C0.33 0.66 0.66 1.32 1 2 C-1.17508418 6.69360269 -1.17508418 6.69360269 -4.1875 7.8125 C-4.785625 7.874375 -5.38375 7.93625 -6 8 C-2.25 2.25 -2.25 2.25 0 0 Z " fill="#C281A0" transform="translate(85,42)"/>
<path d="M0 0 C2.05078125 0.03255208 4.1015625 0.06510417 6.15234375 0.09765625 C5.55421875 0.36578125 4.95609375 0.63390625 4.33984375 0.91015625 C2.18009567 2.08259092 0.79444119 3.29134907 -0.84765625 5.09765625 C-1.83765625 4.43765625 -2.82765625 3.77765625 -3.84765625 3.09765625 C-2.36122845 0.12480066 -2.36122845 0.12480066 0 0 Z " fill="#8E3C61" transform="translate(132.84765625,0.90234375)"/>
<path d="M0 0 C1.98 0.66 3.96 1.32 6 2 C5.01 2.99 4.02 3.98 3 5 C3 4.34 3 3.68 3 3 C1.35 2.67 -0.3 2.34 -2 2 C-1.34 1.34 -0.68 0.68 0 0 Z " fill="#C9568C" transform="translate(96,128)"/>
<path d="M0 0 C1.46534385 3.80989402 0.55203911 6.3241179 -1 10 C-1.99 10.495 -1.99 10.495 -3 11 C-2.44894091 7.0507432 -1.61064629 3.65079826 0 0 Z " fill="#D699B7" transform="translate(20,96)"/>
<path d="M0 0 C0.33 0.66 0.66 1.32 1 2 C0.0625 4.625 0.0625 4.625 -1 7 C-1.66 7 -2.32 7 -3 7 C-3.33 7.66 -3.66 8.32 -4 9 C-3.47731534 6.23723823 -2.89130413 3.6739124 -2 1 C-1.34 0.67 -0.68 0.34 0 0 Z " fill="#B97094" transform="translate(28,79)"/>
<path d="M0 0 C0.66 0.33 1.32 0.66 2 1 C-0.97 3.475 -0.97 3.475 -4 6 C-4.66 5.67 -5.32 5.34 -6 5 C-5.34 3.68 -4.68 2.36 -4 1 C-3.01 1 -2.02 1 -1 1 C-0.67 0.67 -0.34 0.34 0 0 Z " fill="#E4AAC6" transform="translate(97,133)"/>
</svg>
