<?xml version="1.0" encoding="UTF-8"?>
<svg version="1.1" xmlns="http://www.w3.org/2000/svg" width="300" height="288">
<path d="M0 0 C2.76228203 1.91825141 5.44172125 3.80387993 7.96875 6.0234375 C7.96875 6.6834375 7.96875 7.3434375 7.96875 8.0234375 C8.62875 8.0234375 9.28875 8.0234375 9.96875 8.0234375 C9.96875 8.6834375 9.96875 9.3434375 9.96875 10.0234375 C13.90534417 9.5017202 15.83649503 8.60675963 18.65625 5.8359375 C29.80367395 -4.40536314 40.19742395 -6.57232622 54.875 -6.28515625 C65.07799824 -5.83969926 71.35075889 -1.41323491 78.96875 5.0234375 C79.87625 5.7040625 80.78375 6.3846875 81.71875 7.0859375 C84.54538487 9.5199842 86.7077959 12.05189782 88.96875 15.0234375 C88.96875 15.6834375 88.96875 16.3434375 88.96875 17.0234375 C90.61875 17.0234375 92.26875 17.0234375 93.96875 17.0234375 C94.3090625 16.19972656 94.3090625 16.19972656 94.65625 15.359375 C99.38788904 6.93818409 108.44235225 0.19933537 116.96875 -3.9765625 C117.66871094 -4.34910156 118.36867187 -4.72164063 119.08984375 -5.10546875 C123.57670819 -6.4630953 127.99443785 -6.34531761 132.65625 -6.3515625 C133.59919922 -6.37605469 134.54214844 -6.40054687 135.51367188 -6.42578125 C144.92273313 -6.4645815 152.42428185 -3.59105043 159.96875 2.0234375 C161.391875 3.0753125 161.391875 3.0753125 162.84375 4.1484375 C163.545 4.7671875 164.24625 5.3859375 164.96875 6.0234375 C164.96875 6.6834375 164.96875 7.3434375 164.96875 8.0234375 C165.62875 8.0234375 166.28875 8.0234375 166.96875 8.0234375 C186.97681976 25.30313411 195.68021924 56.95527986 201.28125 81.5234375 C201.42852539 82.16724365 201.57580078 82.8110498 201.72753906 83.47436523 C204.31596208 95.61176566 205.28327538 107.65720209 205.3046875 120.046875 C205.31115249 121.4452832 205.31788319 122.8436902 205.32485962 124.24209595 C205.33671839 127.15475583 205.34055284 130.06729822 205.33935547 132.97998047 C205.33919384 135.90796863 205.35295577 138.83532499 205.38037109 141.76318359 C205.55015828 160.19487045 204.8020744 177.9014099 200.96875 196.0234375 C200.82381104 196.71322693 200.67887207 197.40301636 200.52954102 198.1137085 C199.74915382 201.71093206 198.82232835 205.24362 197.78125 208.7734375 C197.48718262 209.79163574 197.19311523 210.80983398 196.89013672 211.85888672 C189.61560927 236.14380374 177.29501412 264.88762423 154.15625 277.8984375 C152.76805003 278.62161635 151.37251231 279.33095055 149.96875 280.0234375 C149.37425049 280.36584473 148.77975098 280.70825195 148.16723633 281.06103516 C140.06325242 284.60860923 126.52185961 283.1617149 118.140625 281.06640625 C109.27598195 276.95406515 101.29310705 269.29268539 95.30859375 261.6796875 C94.53644531 260.803125 93.76429688 259.9265625 92.96875 259.0234375 C91.97875 259.0234375 90.98875 259.0234375 89.96875 259.0234375 C88.86694465 260.6417141 87.76706687 262.2613296 86.67578125 263.88671875 C80.43191245 271.70227078 68.70060889 281.11648518 58.35668945 282.32983398 C55.33108522 282.40038261 52.3076608 282.44433927 49.28125 282.4609375 C48.24291016 282.49380859 47.20457031 282.52667969 46.13476562 282.56054688 C36.1890104 282.62913829 29.1436077 279.29449635 21.59375 272.8984375 C20.80226563 272.23585938 20.01078125 271.57328125 19.1953125 270.890625 C18.46054688 270.27445312 17.72578125 269.65828125 16.96875 269.0234375 C15.64251111 268.01404749 14.31158775 267.01063786 12.96875 266.0234375 C12.2675 266.61511719 11.56625 267.20679688 10.84375 267.81640625 C-0.68506517 277.41853084 -8.54230183 282.3766927 -23.78125 282.4609375 C-24.81507812 282.49380859 -25.84890625 282.52667969 -26.9140625 282.56054688 C-38.90378189 282.64359909 -47.4601475 277.04631035 -56.03125 269.0234375 C-68.75984151 255.68685472 -76.48654535 240.07854163 -83.03125 223.0234375 C-83.50433594 221.80269531 -83.97742188 220.58195313 -84.46484375 219.32421875 C-91.64911655 199.33806421 -95.31571588 177.2533137 -95.40234375 156.08203125 C-95.41135985 154.66553177 -95.42048211 153.24903296 -95.42970276 151.83253479 C-95.44607124 148.87344083 -95.45386823 145.91445816 -95.45678711 142.95532227 C-95.46105472 139.98555131 -95.48164644 137.0166647 -95.51831055 134.04711914 C-96.05467016 89.77520942 -87.59038967 39.63472622 -55.59179688 6.55175781 C-52.0627061 3.09554564 -48.34579742 0.4028889 -44.03125 -1.9765625 C-43.33773437 -2.40453125 -42.64421875 -2.8325 -41.9296875 -3.2734375 C-29.32180399 -9.77785797 -11.4437535 -7.46203514 0 0 Z M144.96875 111.0234375 C144.4849186 113.42625174 144.4849186 113.42625174 144.96875 116.0234375 C146.53942554 118.28161143 146.53942554 118.28161143 148.765625 120.30859375 C149.5596875 121.08654297 150.35375 121.86449219 151.171875 122.66601562 C152.43257812 123.86387695 152.43257812 123.86387695 153.71875 125.0859375 C154.54375 125.88837891 155.36875 126.69082031 156.21875 127.51757812 C157.76099356 129.01629062 159.30831832 130.50980477 160.86230469 131.99633789 C161.55743164 132.66528076 162.25255859 133.33422363 162.96875 134.0234375 C163.71801758 134.70720459 164.46728516 135.39097168 165.23925781 136.09545898 C166.96875 138.0234375 166.96875 138.0234375 166.96875 141.0234375 C161.46812214 141.95885107 156.19706065 142.14408586 150.62451172 142.08935547 C149.25977219 142.08234619 149.25977219 142.08234619 147.86746216 142.07519531 C145.90264542 142.06473689 143.93783936 142.05208912 141.97304916 142.03747177 C138.86265633 142.01537076 135.75232508 142.00134348 132.64187622 141.98977661 C123.80201838 141.95624813 114.96226338 141.91442222 106.12255859 141.85205078 C100.70693342 141.81441392 95.29141162 141.79138588 89.8756752 141.77774429 C87.81437411 141.76969155 85.75308693 141.75608483 83.6918602 141.73681259 C80.8125095 141.71034729 77.9336564 141.70244198 75.05419922 141.69873047 C74.20420349 141.6863736 73.35420776 141.67401672 72.47845459 141.6612854 C67.81962353 141.67712954 64.74800957 141.98301881 60.96875 145.0234375 C60.63875 145.6834375 60.30875 146.3434375 59.96875 147.0234375 C61.69319113 149.22689005 62.73292899 149.96798909 65.48883057 150.61598206 C69.85549369 151.1272642 74.13044613 151.13876235 78.52246094 151.10522461 C79.46622086 151.10215805 80.40998077 151.09909149 81.38233948 151.09593201 C83.42356981 151.08879872 85.46479328 151.07942019 87.50600433 151.06803703 C90.73311316 151.0506194 93.96017232 151.04033993 97.18731689 151.03211975 C106.35978893 151.00768125 115.5321935 150.97193776 124.70458984 150.92749023 C130.32004609 150.90077603 135.93546417 150.8836908 141.55097198 150.87262154 C143.69288806 150.86639812 145.83479649 150.856376 147.97667694 150.84254265 C150.96204041 150.82342212 153.94720095 150.81644433 156.93261719 150.81225586 C158.26822441 150.79911346 158.26822441 150.79911346 159.6308136 150.78570557 C165.7408527 150.7955402 165.7408527 150.7955402 167.96875 153.0234375 C164.54536995 157.11479415 161.02606616 161.00221083 157.19921875 164.71875 C156.52640869 165.37480225 155.85359863 166.03085449 155.16040039 166.70678711 C153.79436924 168.0315065 152.41994595 169.34763234 151.03686523 170.65454102 C150.39821533 171.27514404 149.75956543 171.89574707 149.1015625 172.53515625 C148.52293457 173.08647217 147.94430664 173.63778809 147.34814453 174.20581055 C145.63256209 176.46643201 145.24227766 178.21763757 144.96875 181.0234375 C145.96875 183.0234375 145.96875 183.0234375 147.96875 184.0234375 C151.79644042 184.00971818 153.69090266 182.58159194 156.34375 180.0390625 C157.5624261 178.79389344 158.7704909 177.53826655 159.96875 176.2734375 C160.57203125 175.65210938 161.1753125 175.03078125 161.796875 174.390625 C162.98234813 173.16907225 164.16408199 171.94387805 165.34179688 170.71484375 C167.51864349 168.45175952 169.74101129 166.23632462 171.96875 164.0234375 C172.7215625 163.270625 173.474375 162.5178125 174.25 161.7421875 C174.9821875 161.01 175.714375 160.2778125 176.46875 159.5234375 C177.24347656 158.74484375 178.01820313 157.96625 178.81640625 157.1640625 C180.05821752 155.92901245 181.31049043 154.70393078 182.58984375 153.5078125 C185.35693831 150.91314817 186.82876058 148.65067656 187.96875 145.0234375 C181.9489327 137.82290256 175.39698656 131.13109418 168.80737305 124.45703125 C167.53190242 123.15977591 166.26274656 121.85628373 164.99975586 120.546875 C163.15865616 118.6390292 161.29875417 116.75148124 159.43359375 114.8671875 C158.87405502 114.27981812 158.3145163 113.69244873 157.73802185 113.08728027 C155.07458826 110.43759411 153.45483168 109.09610908 149.68969727 108.53320312 C146.83064512 108.78119504 146.83064512 108.78119504 144.96875 111.0234375 Z " fill="#FD7678" transform="translate(95.03125,5.9765625)"/>
<path d="M0 0 C2.76228203 1.91825141 5.44172125 3.80387993 7.96875 6.0234375 C7.96875 6.6834375 7.96875 7.3434375 7.96875 8.0234375 C8.62875 8.0234375 9.28875 8.0234375 9.96875 8.0234375 C9.96875 8.6834375 9.96875 9.3434375 9.96875 10.0234375 C13.90534417 9.5017202 15.83649503 8.60675963 18.65625 5.8359375 C29.80367395 -4.40536314 40.19742395 -6.57232622 54.875 -6.28515625 C65.07799824 -5.83969926 71.35075889 -1.41323491 78.96875 5.0234375 C79.87625 5.7040625 80.78375 6.3846875 81.71875 7.0859375 C84.54538487 9.5199842 86.7077959 12.05189782 88.96875 15.0234375 C88.96875 15.6834375 88.96875 16.3434375 88.96875 17.0234375 C90.61875 17.0234375 92.26875 17.0234375 93.96875 17.0234375 C94.3090625 16.19972656 94.3090625 16.19972656 94.65625 15.359375 C99.38788904 6.93818409 108.44235225 0.19933537 116.96875 -3.9765625 C117.66871094 -4.34910156 118.36867187 -4.72164063 119.08984375 -5.10546875 C123.57670819 -6.4630953 127.99443785 -6.34531761 132.65625 -6.3515625 C133.59919922 -6.37605469 134.54214844 -6.40054687 135.51367188 -6.42578125 C144.92273313 -6.4645815 152.42428185 -3.59105043 159.96875 2.0234375 C161.391875 3.0753125 161.391875 3.0753125 162.84375 4.1484375 C163.545 4.7671875 164.24625 5.3859375 164.96875 6.0234375 C164.96875 6.6834375 164.96875 7.3434375 164.96875 8.0234375 C165.62875 8.0234375 166.28875 8.0234375 166.96875 8.0234375 C186.97681976 25.30313411 195.68021924 56.95527986 201.28125 81.5234375 C201.42852539 82.16724365 201.57580078 82.8110498 201.72753906 83.47436523 C204.31596208 95.61176566 205.28327538 107.65720209 205.3046875 120.046875 C205.31115249 121.4452832 205.31788319 122.8436902 205.32485962 124.24209595 C205.33671839 127.15475583 205.34055284 130.06729822 205.33935547 132.97998047 C205.33919384 135.90796863 205.35295577 138.83532499 205.38037109 141.76318359 C205.55015828 160.19487045 204.8020744 177.9014099 200.96875 196.0234375 C200.82381104 196.71322693 200.67887207 197.40301636 200.52954102 198.1137085 C199.74915382 201.71093206 198.82232835 205.24362 197.78125 208.7734375 C197.48718262 209.79163574 197.19311523 210.80983398 196.89013672 211.85888672 C189.61560927 236.14380374 177.29501412 264.88762423 154.15625 277.8984375 C152.76805003 278.62161635 151.37251231 279.33095055 149.96875 280.0234375 C149.37425049 280.36584473 148.77975098 280.70825195 148.16723633 281.06103516 C140.06325242 284.60860923 126.52185961 283.1617149 118.140625 281.06640625 C109.27598195 276.95406515 101.29310705 269.29268539 95.30859375 261.6796875 C94.53644531 260.803125 93.76429688 259.9265625 92.96875 259.0234375 C91.97875 259.0234375 90.98875 259.0234375 89.96875 259.0234375 C88.86694465 260.6417141 87.76706687 262.2613296 86.67578125 263.88671875 C80.43191245 271.70227078 68.70060889 281.11648518 58.35668945 282.32983398 C55.33108522 282.40038261 52.3076608 282.44433927 49.28125 282.4609375 C48.24291016 282.49380859 47.20457031 282.52667969 46.13476562 282.56054688 C36.1890104 282.62913829 29.1436077 279.29449635 21.59375 272.8984375 C20.80226563 272.23585938 20.01078125 271.57328125 19.1953125 270.890625 C18.46054688 270.27445312 17.72578125 269.65828125 16.96875 269.0234375 C15.64251111 268.01404749 14.31158775 267.01063786 12.96875 266.0234375 C12.2675 266.61511719 11.56625 267.20679688 10.84375 267.81640625 C-0.68506517 277.41853084 -8.54230183 282.3766927 -23.78125 282.4609375 C-24.81507812 282.49380859 -25.84890625 282.52667969 -26.9140625 282.56054688 C-38.90378189 282.64359909 -47.4601475 277.04631035 -56.03125 269.0234375 C-68.75984151 255.68685472 -76.48654535 240.07854163 -83.03125 223.0234375 C-83.50433594 221.80269531 -83.97742188 220.58195313 -84.46484375 219.32421875 C-91.64911655 199.33806421 -95.31571588 177.2533137 -95.40234375 156.08203125 C-95.41135985 154.66553177 -95.42048211 153.24903296 -95.42970276 151.83253479 C-95.44607124 148.87344083 -95.45386823 145.91445816 -95.45678711 142.95532227 C-95.46105472 139.98555131 -95.48164644 137.0166647 -95.51831055 134.04711914 C-96.05467016 89.77520942 -87.59038967 39.63472622 -55.59179688 6.55175781 C-52.0627061 3.09554564 -48.34579742 0.4028889 -44.03125 -1.9765625 C-43.33773437 -2.40453125 -42.64421875 -2.8325 -41.9296875 -3.2734375 C-29.32180399 -9.77785797 -11.4437535 -7.46203514 0 0 Z M-42.03125 -0.9765625 C-43.145 -0.32300781 -43.145 -0.32300781 -44.28125 0.34375 C-49.96915759 3.86026043 -54.55057442 8.08573302 -59.03125 13.0234375 C-59.65515625 13.68214844 -60.2790625 14.34085938 -60.921875 15.01953125 C-72.98049619 28.76930053 -79.65440825 46.81061102 -85.03125 64.0234375 C-85.41796875 65.18488281 -85.8046875 66.34632812 -86.203125 67.54296875 C-91.64244567 84.84419257 -94.20226696 103.79962756 -94.1640625 121.91015625 C-94.16501923 122.92962845 -94.16597595 123.94910065 -94.16696167 124.99946594 C-94.16763872 127.14669863 -94.16581774 129.29393342 -94.16162109 131.44116211 C-94.15629403 134.68413025 -94.161568 137.92695814 -94.16796875 141.16992188 C-94.18581672 184.34956274 -86.68495472 235.64206141 -55.03125 268.0234375 C-51.53943981 271.01275518 -47.91170597 273.56618601 -44.03125 276.0234375 C-43.27585938 276.55195313 -42.52046875 277.08046875 -41.7421875 277.625 C-33.32742466 282.80109123 -22.61240684 282.1932225 -13.15234375 280.51171875 C-10.96581832 279.8538598 -9.05686732 279.07234207 -7.03125 278.0234375 C-6.38542969 277.69472656 -5.73960938 277.36601562 -5.07421875 277.02734375 C0.90153449 273.62104654 6.22146093 268.97501565 10.96875 264.0234375 C10.96875 263.3634375 10.96875 262.7034375 10.96875 262.0234375 C14.49366325 263.78589413 16.88525262 265.92305201 19.53125 268.7734375 C26.81392325 276.27805888 35.3518451 281.04605704 45.80615234 281.31640625 C61.29424865 281.45235618 71.69258503 276.18172727 82.90625 265.3984375 C84.96991137 263.25597283 86.64302636 261.105915 88.21875 258.5859375 C89.085 257.3175 89.085 257.3175 89.96875 256.0234375 C90.95875 256.0234375 91.94875 256.0234375 92.96875 256.0234375 C94.40625 257.640625 94.40625 257.640625 95.96875 259.8984375 C103.54890205 269.99469044 113.19052962 278.66651439 125.96875 281.0234375 C139.92334336 281.96298518 149.65923632 279.66390595 160.96875 271.0234375 C163.59369782 268.73192673 163.59369782 268.73192673 165.96875 266.0234375 C166.84080078 265.13978516 166.84080078 265.13978516 167.73046875 264.23828125 C197.16792233 233.29714635 204.19573436 183.20797653 204.09912109 142.45947266 C204.09378699 139.79193363 204.09908357 137.12456502 204.10546875 134.45703125 C204.11397049 119.29764269 203.90436979 104.39512506 200.65625 89.5234375 C200.31750854 87.92109253 200.31750854 87.92109253 199.97192383 86.28637695 C199.51978128 84.16311299 199.06191083 82.04105874 198.59765625 79.92041016 C198.05055424 77.40025781 197.53409555 74.87690259 197.03125 72.34765625 C192.28407141 49.33103278 181.98367838 27.24379059 165.96875 10.0234375 C165.38738281 9.32734375 164.80601562 8.63125 164.20703125 7.9140625 C158.61027285 1.54193455 149.92674717 -2.32389678 141.96875 -4.9765625 C128.7608184 -5.7561453 118.3034415 -4.94629474 107.96875 4.0234375 C107.14117187 4.71953125 106.31359375 5.415625 105.4609375 6.1328125 C100.23102702 10.6601977 95.82307524 15.27328562 91.96875 21.0234375 C89.52809436 18.66151269 87.19794663 16.29053279 84.984375 13.7109375 C76.38580513 3.70976404 66.73856181 -3.96083716 53.32421875 -5.35546875 C41.39058542 -6.04823176 31.66390139 -3.26541312 22.30419922 4.38378906 C19.30627454 7.07262028 16.57935768 9.96099387 13.96875 13.0234375 C10.64535543 11.56383853 8.3544668 9.69021787 5.71875 7.2109375 C-3.09707158 -0.7536018 -11.91712386 -5.57589826 -23.96875 -5.4140625 C-24.76144287 -5.40648926 -25.55413574 -5.39891602 -26.37084961 -5.39111328 C-32.37062808 -5.22186183 -36.93888474 -4.28249317 -42.03125 -0.9765625 Z " fill="#FEEAE9" transform="translate(95.03125,5.9765625)"/>
<path d="M0 0 C2.92564075 1.99988917 5.42371988 4.57497642 8 7 C8.51734711 7.48513062 9.03469421 7.97026123 9.56771851 8.47009277 C13.27465354 11.95636188 16.93371674 15.48800498 20.56640625 19.05151367 C21.86193897 20.31514881 23.16545264 21.57064991 24.4765625 22.81811523 C26.38934541 24.6396885 28.27462767 26.48616522 30.15625 28.33984375 C31.03730408 29.16366798 31.03730408 29.16366798 31.93615723 30.00413513 C34.91430055 32.99688875 35.92492407 34.6473445 36.82836914 38.89111328 C36.36880234 44.45629833 32.40730141 47.70022744 28.58984375 51.40234375 C27.82958389 52.16551407 27.06932404 52.92868439 26.286026 53.71498108 C24.67727469 55.32041909 23.0586285 56.9159947 21.4309082 58.50219727 C18.94569726 60.92949377 16.49995477 63.39194016 14.05664062 65.86132812 C12.48659021 67.4189028 10.91439314 68.97431722 9.33984375 70.52734375 C8.61039047 71.2626683 7.88093719 71.99799286 7.12937927 72.75559998 C1.34727013 78.32822175 1.34727013 78.32822175 -2.86889648 79.06469727 C-6 79 -6 79 -8.4375 77.4375 C-10.45992181 74.28252198 -10.46357933 72.70579406 -10 69 C-7.98046875 66.29931641 -7.98046875 66.29931641 -5.1875 63.6015625 C-4.69918701 63.1217392 -4.21087402 62.64191589 -3.70776367 62.14755249 C-2.15206962 60.6253199 -0.57680579 59.12532253 1 57.625 C2.06125945 56.5938495 3.12117214 55.56131098 4.1796875 54.52734375 C6.77105223 52.00196381 9.38038852 49.49610465 12 47 C11.40162229 46.99761165 10.80324457 46.99522329 10.1867342 46.99276257 C-4.37750685 46.93360975 -18.94159907 46.85805789 -33.50565624 46.76428509 C-40.54875886 46.71933194 -47.59181096 46.67991624 -54.63500977 46.65356445 C-61.43023748 46.62812485 -68.22523119 46.58721693 -75.02031898 46.53681374 C-77.61465985 46.52011009 -80.20903959 46.50861767 -82.80342674 46.50238609 C-86.4332378 46.49278334 -90.06246954 46.46476852 -93.69213867 46.43237305 C-94.7681987 46.43380814 -95.84425873 46.43524323 -96.95292664 46.4367218 C-106.4065285 46.31715442 -106.4065285 46.31715442 -110 43 C-110.60927003 39.27668318 -110.65103161 37.0714665 -108.67022705 33.8114624 C-104.33435683 30.87003992 -99.83390489 31.43045095 -94.71386719 31.45410156 C-92.98660904 31.43859505 -92.98660904 31.43859505 -91.22445679 31.42277527 C-87.41512162 31.3932577 -83.60631573 31.39184614 -79.796875 31.390625 C-77.1569924 31.37564949 -74.51711919 31.35892369 -71.8772583 31.34051514 C-65.63710041 31.29995532 -59.39704702 31.27961458 -53.15677762 31.26654124 C-46.05152682 31.25067104 -38.94645386 31.21225544 -31.84130621 31.17194796 C-17.2276078 31.08954948 -2.61388672 31.03545708 12 31 C11.33355469 30.36497559 10.66710937 29.72995117 9.98046875 29.07568359 C7.50827298 26.70591971 5.05030529 24.32308346 2.60058594 21.93017578 C1.53888314 20.89859451 0.47185064 19.87246862 -0.60058594 18.85205078 C-2.14400785 17.3816479 -3.66700767 15.89249494 -5.1875 14.3984375 C-6.10917969 13.50817871 -7.03085938 12.61791992 -7.98046875 11.70068359 C-10.38206345 8.48907327 -10.51789716 6.92072943 -10 3 C-7.70094331 -1.05715886 -4.23917509 -0.69494674 0 0 Z M-8 4 C-8.4838314 6.40281424 -8.4838314 6.40281424 -8 9 C-6.42932446 11.25817393 -6.42932446 11.25817393 -4.203125 13.28515625 C-3.4090625 14.06310547 -2.615 14.84105469 -1.796875 15.64257812 C-0.53617188 16.84043945 -0.53617188 16.84043945 0.75 18.0625 C1.575 18.86494141 2.4 19.66738281 3.25 20.49414062 C4.79224356 21.99285312 6.33956832 23.48636727 7.89355469 24.97290039 C8.58868164 25.64184326 9.28380859 26.31078613 10 27 C10.74926758 27.68376709 11.49853516 28.36753418 12.27050781 29.07202148 C14 31 14 31 14 34 C8.49937214 34.93541357 3.22831065 35.12064836 -2.34423828 35.06591797 C-3.70897781 35.05890869 -3.70897781 35.05890869 -5.10128784 35.05175781 C-7.06610458 35.04129939 -9.03091064 35.02865162 -10.99570084 35.01403427 C-14.10609367 34.99193326 -17.21642492 34.97790598 -20.32687378 34.96633911 C-29.16673162 34.93281063 -38.00648662 34.89098472 -46.84619141 34.82861328 C-52.26181658 34.79097642 -57.67733838 34.76794838 -63.0930748 34.75430679 C-65.15437589 34.74625405 -67.21566307 34.73264733 -69.2768898 34.71337509 C-72.1562405 34.68690979 -75.0350936 34.67900448 -77.91455078 34.67529297 C-78.76454651 34.6629361 -79.61454224 34.65057922 -80.49029541 34.6378479 C-85.14912647 34.65369204 -88.22074043 34.95958131 -92 38 C-92.33 38.66 -92.66 39.32 -93 40 C-91.27555887 42.20345255 -90.23582101 42.94455159 -87.47991943 43.59254456 C-83.11325631 44.1038267 -78.83830387 44.11532485 -74.44628906 44.08178711 C-73.50252914 44.07872055 -72.55876923 44.07565399 -71.58641052 44.07249451 C-69.54518019 44.06536122 -67.50395672 44.05598269 -65.46274567 44.04459953 C-62.23563684 44.0271819 -59.00857768 44.01690243 -55.78143311 44.00868225 C-46.60896107 43.98424375 -37.4365565 43.94850026 -28.26416016 43.90405273 C-22.64870391 43.87733853 -17.03328583 43.8602533 -11.41777802 43.84918404 C-9.27586194 43.84296062 -7.13395351 43.8329385 -4.99207306 43.81910515 C-2.00670959 43.79998462 0.97845095 43.79300683 3.96386719 43.78881836 C5.29947441 43.77567596 5.29947441 43.77567596 6.6620636 43.76226807 C12.7721027 43.7721027 12.7721027 43.7721027 15 46 C11.57661995 50.09135665 8.05731616 53.97877333 4.23046875 57.6953125 C3.55765869 58.35136475 2.88484863 59.00741699 2.19165039 59.68334961 C0.82561924 61.008069 -0.54880405 62.32419484 -1.93188477 63.63110352 C-2.57053467 64.25170654 -3.20918457 64.87230957 -3.8671875 65.51171875 C-4.44581543 66.06303467 -5.02444336 66.61435059 -5.62060547 67.18237305 C-7.33618791 69.44299451 -7.72647234 71.19420007 -8 74 C-7 76 -7 76 -5 77 C-1.17230958 76.98628068 0.72215266 75.55815444 3.375 73.015625 C4.5936761 71.77045594 5.8017409 70.51482905 7 69.25 C7.60328125 68.62867188 8.2065625 68.00734375 8.828125 67.3671875 C10.01359813 66.14563475 11.19533199 64.92044055 12.37304688 63.69140625 C14.54989349 61.42832202 16.77226129 59.21288712 19 57 C19.7528125 56.2471875 20.505625 55.494375 21.28125 54.71875 C22.0134375 53.9865625 22.745625 53.254375 23.5 52.5 C24.27472656 51.72140625 25.04945313 50.9428125 25.84765625 50.140625 C27.08946752 48.90557495 28.34174043 47.68049328 29.62109375 46.484375 C32.38818831 43.88971067 33.86001058 41.62723906 35 38 C28.9801827 30.79946506 22.42823656 24.10765668 15.83862305 17.43359375 C14.56315242 16.13633841 13.29399656 14.83284623 12.03100586 13.5234375 C10.18990616 11.6155917 8.33000417 9.72804374 6.46484375 7.84375 C5.90530502 7.25638062 5.3457663 6.66901123 4.76927185 6.06384277 C2.10583826 3.41415661 0.48608168 2.07267158 -3.27905273 1.50976562 C-6.13810488 1.75775754 -6.13810488 1.75775754 -8 4 Z " fill="#FEE8E9" transform="translate(248,113)"/>
<path d="M0 0 C0 0.99 0 1.98 0 3 C-0.969375 2.979375 -1.93875 2.95875 -2.9375 2.9375 C-5.87465895 2.64381501 -5.87465895 2.64381501 -7 4 C-7.37702351 7.0680572 -7.35460265 8.50950627 -5.51879883 11.04882812 C-4.83841553 11.70302734 -4.15803223 12.35722656 -3.45703125 13.03125 C-2.71259766 13.75957031 -1.96816406 14.48789063 -1.20117188 15.23828125 C-0.41291016 15.98464844 0.37535156 16.73101562 1.1875 17.5 C1.95642578 18.24636719 2.72535156 18.99273437 3.51757812 19.76171875 C6.21825619 22.38126056 8.92390162 24.99456327 11.6730957 27.56323242 C12.82757659 28.66294089 13.92251071 29.82475463 15 31 C14.8125 33.3125 14.8125 33.3125 14 35 C8.46755661 35.94767565 3.18150188 36.10671717 -2.42358398 36.02172852 C-3.3414418 36.01212097 -4.25929962 36.00251343 -5.20497131 35.99261475 C-8.21876141 35.95980857 -11.23239808 35.919407 -14.24609375 35.87890625 C-16.34358693 35.85458714 -18.44108569 35.8307445 -20.53858948 35.80735779 C-26.04428483 35.74469502 -31.54988081 35.67557837 -37.05548096 35.60510254 C-42.67951961 35.53425778 -48.30362841 35.46953758 -53.92773438 35.40429688 C-64.95190002 35.27551423 -75.97597036 35.1399111 -87 35 C-87 34.67 -87 34.34 -87 34 C-93.27 33.67 -99.54 33.34 -106 33 C-106 32.67 -106 32.34 -106 32 C-67.06 31.67 -28.12 31.34 12 31 C4.74 23.74 -2.52 16.48 -10 9 C-10 3 -10 3 -8.9375 1.125 C-5.99772876 -0.58196395 -3.32129197 -0.18799766 0 0 Z " fill="#FDE7E7" transform="translate(248,113)"/>
<path d="M0 0 C0.79481277 0.00424484 1.58962555 0.00848969 2.40852356 0.01286316 C4.94587146 0.02964945 7.48242363 0.06730051 10.01953125 0.10546875 C11.7402229 0.1205157 13.46092701 0.13420409 15.18164062 0.14648438 C19.39874387 0.17955268 23.61525267 0.2313338 27.83203125 0.29296875 C27.83203125 0.62296875 27.83203125 0.95296875 27.83203125 1.29296875 C22.55203125 1.29296875 17.27203125 1.29296875 11.83203125 1.29296875 C11.83203125 1.95296875 11.83203125 2.61296875 11.83203125 3.29296875 C11.00703125 3.76734375 10.18203125 4.24171875 9.33203125 4.73046875 C8.50703125 5.24609375 7.68203125 5.76171875 6.83203125 6.29296875 C6.83203125 7.28296875 6.83203125 8.27296875 6.83203125 9.29296875 C12.80633021 10.16695205 18.56477309 10.41625928 24.59692383 10.35888672 C25.53936951 10.35421387 26.48181519 10.34954102 27.45281982 10.34472656 C29.4852854 10.33427793 31.51774066 10.32163361 33.55018044 10.30700302 C36.76511943 10.28489106 39.97999878 10.27087177 43.19499207 10.25930786 C52.33084219 10.22578331 61.46659219 10.18383226 70.60229492 10.12158203 C76.20061175 10.08401005 81.79882905 10.06093858 87.39725304 10.04727554 C89.5299833 10.03920916 91.66269992 10.02558334 93.79535866 10.00634384 C96.76840295 9.97996905 99.7409649 9.97198168 102.71411133 9.96826172 C103.59777878 9.95590485 104.48144623 9.94354797 105.39189148 9.93081665 C106.20062714 9.93349548 107.00936279 9.93617432 107.84260559 9.93893433 C108.54476102 9.93487013 109.24691645 9.93080593 109.97034931 9.92661858 C112.37213738 10.39925327 113.27807433 11.45669902 114.83203125 13.29296875 C114.17203125 13.95296875 113.51203125 14.61296875 112.83203125 15.29296875 C112.83203125 14.30296875 112.83203125 13.31296875 112.83203125 12.29296875 C112.2051195 12.29481234 111.57820774 12.29665592 110.93229866 12.29855537 C95.69326884 12.34268278 80.45425856 12.37580012 65.21518135 12.39659309 C57.84574212 12.40691513 50.47634549 12.4209931 43.10693359 12.44384766 C36.68536504 12.46375323 30.26382732 12.47667844 23.84222877 12.48114574 C20.44057835 12.48375794 17.03901616 12.48991684 13.63739395 12.50442886 C9.84430874 12.51885854 6.05140884 12.52095027 2.25830078 12.52001953 C0.55790146 12.53080536 0.55790146 12.53080536 -1.17684937 12.54180908 C-2.72076355 12.53768509 -2.72076355 12.53768509 -4.29586792 12.53347778 C-5.19369429 12.53532137 -6.09152065 12.53716496 -7.01655388 12.53906441 C-9.16796875 12.29296875 -9.16796875 12.29296875 -11.16796875 10.29296875 C-11.71962385 4.22476266 -11.71962385 4.22476266 -10.15893555 1.58862305 C-6.99554465 -0.47000546 -3.64764669 -0.07316279 0 0 Z " fill="#FEFCFC" transform="translate(149.16796875,145.70703125)"/>
<path d="M0 0 C1.47437279 -0.002062 1.47437279 -0.002062 2.97853088 -0.00416565 C4.04524017 -0.00057037 5.11194946 0.0030249 6.21098328 0.00672913 C7.34312759 0.0065831 8.47527191 0.00643707 9.64172363 0.00628662 C13.38056866 0.0069828 17.11936376 0.01476146 20.85820007 0.02259827 C23.45180229 0.02446349 26.04540487 0.0258869 28.63900757 0.02688599 C34.76581284 0.03031287 40.89259753 0.0381929 47.01939505 0.04823548 C53.99640116 0.05942278 60.97340813 0.06491366 67.95042098 0.06993091 C82.29859653 0.08037622 96.64675704 0.09795934 110.99491882 0.12025452 C110.99491882 0.45025452 110.99491882 0.78025452 110.99491882 1.12025452 C110.40500499 1.12448646 109.81509115 1.1287184 109.20730114 1.13307858 C94.86080293 1.23633297 80.51435289 1.34496291 66.16794109 1.45959377 C59.23015718 1.51489817 52.29236812 1.56837559 45.35453796 1.61756897 C38.66314577 1.66502006 31.97181115 1.71754003 25.28048134 1.77319527 C22.72354742 1.79362558 20.1665992 1.81233752 17.60964012 1.82932854 C14.03708584 1.85335746 10.46463056 1.88341429 6.89213562 1.91493225 C5.82758652 1.92068771 4.76303741 1.92644318 3.66622925 1.93237305 C2.20860168 1.94705627 2.20860168 1.94705627 0.7215271 1.96203613 C-0.12375707 1.96848868 -0.96904123 1.97494123 -1.83994007 1.98158932 C-4.18800965 2.03959313 -4.18800965 2.03959313 -7.00508118 3.12025452 C-7.33508118 5.76025452 -7.66508118 8.40025452 -8.00508118 11.12025452 C-8.66508118 11.12025452 -9.32508118 11.12025452 -10.00508118 11.12025452 C-10.00508118 7.82025452 -10.00508118 4.52025452 -10.00508118 1.12025452 C-6.60879137 0.3555178 -3.47866471 -0.00376887 0 0 Z " fill="#ED8082" transform="translate(146.0050811767578,143.87974548339844)"/>
<path d="M0 0 C39.6 0.33 79.2 0.66 120 1 C118.35 2.65 116.7 4.3 115 6 C114.505 4.515 114.505 4.515 114 3 C76.71 2.67 39.42 2.34 1 2 C0.67 1.34 0.34 0.68 0 0 Z " fill="#E98082" transform="translate(141,158)"/>
<path d="M0 0 C0.33 0 0.66 0 1 0 C3.03977033 10.13814418 4.48741178 19.61993429 4 30 C3.34 29.67 2.68 29.34 2 29 C1.5103525 26.3734341 1.1506479 23.83841778 0.875 21.1875 C0.79008301 20.42445557 0.70516602 19.66141113 0.61767578 18.87524414 C-0.03905008 12.57424357 -0.21966456 6.33366155 0 0 Z " fill="#EE8789" transform="translate(294,91)"/>
<path d="M0 0 C0.78246094 -0.020625 1.56492187 -0.04125 2.37109375 -0.0625 C8.03752833 -0.10008829 12.17722921 0.99009966 17.375 3.25 C17.375 3.58 17.375 3.91 17.375 4.25 C10.75 4.375 10.75 4.375 7.375 3.25 C7.375 2.59 7.375 1.93 7.375 1.25 C0.0129306 1.7359793 -7.31600518 2.22674072 -14.625 3.25 C-9.48937055 0.68218527 -5.77433554 0.03695575 0 0 Z " fill="#F08C8E" transform="translate(70.625,0.75)"/>
<path d="M0 0 C0 4.92820304 -3.6500443 7.63650913 -7 11 C-11.15106683 14.38862598 -13.63423043 15.51102567 -19 15 C-19 14.67 -19 14.34 -19 14 C-17.97777344 13.79632813 -16.95554688 13.59265625 -15.90234375 13.3828125 C-11.31293625 12.07155321 -8.73583995 9.30714434 -5.5625 5.875 C-5.02173828 5.31167969 -4.48097656 4.74835938 -3.92382812 4.16796875 C-2.6040952 2.78984056 -1.30034849 1.39643335 0 0 Z " fill="#ED7E82" transform="translate(261,178)"/>
<path d="M0 0 C2.81379388 2.81379388 3.81213054 6.21813533 5.1875 9.875 C5.47302734 10.59558594 5.75855469 11.31617188 6.05273438 12.05859375 C7.47811319 15.82492317 8.24642663 18.15902534 7 22 C6.66226562 21.10796875 6.32453125 20.2159375 5.9765625 19.296875 C5.30753906 17.54117188 5.30753906 17.54117188 4.625 15.75 C3.96371094 14.00976562 3.96371094 14.00976562 3.2890625 12.234375 C2.10914088 9.1244779 2.10914088 9.1244779 0.84375 6.75 C-0.27016467 4.43965847 -0.14047766 2.52859795 0 0 Z " fill="#EF8F92" transform="translate(281,48)"/>
<path d="M0 0 C0.99 0.66 1.98 1.32 3 2 C1.576875 2.86625 1.576875 2.86625 0.125 3.75 C-3.04438144 5.64800804 -3.04438144 5.64800804 -4 8.125 C-5 10 -5 10 -8.125 11.25 C-9.07375 11.4975 -10.0225 11.745 -11 12 C-7.49102731 7.81576108 -3.91939465 3.80411834 0 0 Z " fill="#EF8085" transform="translate(277,162)"/>
<path d="M0 0 C0.33 0.66 0.66 1.32 1 2 C0.04956626 3.33897583 -0.91059147 4.67105427 -1.875 6 C-2.40867187 6.7425 -2.94234375 7.485 -3.4921875 8.25 C-3.98976563 8.8275 -4.48734375 9.405 -5 10 C-5.66 10 -6.32 10 -7 10 C-7.66 11.98 -8.32 13.96 -9 16 C-9.66 16 -10.32 16 -11 16 C-9.55049595 11.64352355 -7.32252888 8.68242711 -4.375 5.1875 C-3.55773438 4.21167969 -2.74046875 3.23585938 -1.8984375 2.23046875 C-1.27195312 1.49441406 -0.64546875 0.75835938 0 0 Z " fill="#EE888D" transform="translate(38,17)"/>
<path d="M0 0 C0 0.66 0 1.32 0 2 C-3.97610786 4.71486934 -8.13901977 4.22440753 -12.75 4.125 C-13.54277344 4.11597656 -14.33554688 4.10695313 -15.15234375 4.09765625 C-17.10169281 4.07417012 -19.05088575 4.03830137 -21 4 C-21 3.67 -21 3.34 -21 3 C-20.13117188 2.95101563 -19.26234375 2.90203125 -18.3671875 2.8515625 C-17.21476563 2.77679688 -16.06234375 2.70203125 -14.875 2.625 C-13.16957031 2.52058594 -13.16957031 2.52058594 -11.4296875 2.4140625 C-7.51911268 1.94194299 -3.87191475 0 0 0 Z " fill="#FEDEDF" transform="translate(245,284)"/>
<path d="M0 0 C0.33 0 0.66 0 1 0 C1 1.65 1 3.3 1 5 C2.32 5.66 3.64 6.32 5 7 C5 7.66 5 8.32 5 9 C6.32 9.33 7.64 9.66 9 10 C5.625 9.6875 5.625 9.6875 2 9 C-0.29013653 5.5647952 -0.17842973 4.014669 0 0 Z " fill="#FEE4E5" transform="translate(238,182)"/>
<path d="M0 0 C7.57142857 4 7.57142857 4 10 8 C9.01 8 8.02 8 7 8 C6.67 7.01 6.34 6.02 6 5 C5.01 5 4.02 5 3 5 C3 4.34 3 3.68 3 3 C2.01 2.67 1.02 2.34 0 2 C0 1.34 0 0.68 0 0 Z " fill="#EE888A" transform="translate(165,7)"/>
<path d="M0 0 C1.48285242 0.95262034 2.96118201 1.91228405 4.4375 2.875 C5.67306641 3.67550781 5.67306641 3.67550781 6.93359375 4.4921875 C9 6 9 6 10 8 C5.17965738 7.58682778 3.09007389 5.61980085 0 2 C0 1.34 0 0.68 0 0 Z " fill="#F08389" transform="translate(92,7)"/>
<path d="M0 0 C0.556875 0.28875 1.11375 0.5775 1.6875 0.875 C4.08494645 2.0413253 6.51596939 3.0339881 9 4 C9 4.99 9 5.98 9 7 C4.58110387 5.64978174 2.65654657 3.73884332 0 0 Z " fill="#EF8286" transform="translate(42,274)"/>
<path d="M0 0 C0.66 1.32 1.32 2.64 2 4 C1.01 5.485 1.01 5.485 0 7 C-0.66 7 -1.32 7 -2 7 C-2.33 7.99 -2.66 8.98 -3 10 C-3.33 9.34 -3.66 8.68 -4 8 C-3.22265625 6.0546875 -3.22265625 6.0546875 -2.0625 3.875 C-1.49208984 2.78832031 -1.49208984 2.78832031 -0.91015625 1.6796875 C-0.60980469 1.12539063 -0.30945313 0.57109375 0 0 Z " fill="#EF8588" transform="translate(22,40)"/>
<path d="M0 0 C0.33 0 0.66 0 1 0 C1.25 3.25 1.25 3.25 1 7 C-0.32 8.32 -1.64 9.64 -3 11 C-2.01 7.37 -1.02 3.74 0 0 Z " fill="#EF9194" transform="translate(11,67)"/>
</svg>
